<svg width="1024" xmlns="http://www.w3.org/2000/svg" height="1198.04" id="screenshot-4192aaeb-1942-8086-8006-99a17d4fe247" viewBox="0 0 1024 1198.04" xmlns:xlink="http://www.w3.org/1999/xlink" fill="none" version="1.1"><g id="shape-4192aaeb-1942-8086-8006-99a17d4fe247" height="1024" width="1024" xml:space="preserve" rx="0" ry="0" style="fill: rgb(0, 0, 0);"><g id="shape-4192aaeb-1942-8086-8006-99a17d50fcf5" style="display: none;"><g class="fills" id="fills-4192aaeb-1942-8086-8006-99a17d50fcf5"><rect width="1024" height="1024" x="0" transform="matrix(1.000000, 0.000000, 0.000000, 1.000000, 0.000000, 0.000000)" stroke-miterlimit="10" style="fill-rule: nonzero; clip-rule: evenodd; stroke-linecap: round; stroke-linejoin: round; fill: none;" ry="0" fill="none" rx="0" y="0"/></g></g><g id="shape-4192aaeb-1942-8086-8006-99a17d50fcf6" clip-path="url(#render-3-a)" rx="0" ry="0" style="fill: rgb(0, 0, 0);"><defs><clipPath id="render-3-a" class="svg-def" transform="matrix(1.000000, 0.000000, 0.000000, 1.000000, 0.000000, 0.000000)"><rect height="1024" width="1024"/></clipPath></defs><g id="shape-4192aaeb-1942-8086-8006-99a17d5143c3"><g class="fills" id="fills-4192aaeb-1942-8086-8006-99a17d5143c3"><path d="M0,599.02001953125C0,268.18994140625,229.22999572753906,0,512,0C794.77001953125,0,1024,268.18994140625,1024,599.02001953125C1024,929.85009765625,794.77001953125,1198.0400390625,512,1198.0400390625C229.22999572753906,1198.0400390625,0,929.85009765625,0,599.02001953125Z" stroke-miterlimit="10" stroke-linecap="butt" style="fill-rule: nonzero; clip-rule: evenodd; stroke-linejoin: round; fill: rgb(198, 198, 198);"/></g><g stroke-miterlimit="10" stroke-linecap="butt" id="strokes-c50c3792-00a5-80dc-8006-99acd0814d8e-4192aaeb-1942-8086-8006-99a17d5143c3" class="strokes" style="fill-rule: nonzero; clip-rule: evenodd; stroke-linejoin: round;"><g class="inner-stroke-shape"><defs><clipPath id="inner-stroke-render-4-4192aaeb-1942-8086-8006-99a17d5143c3-0"><use href="#stroke-shape-render-4-4192aaeb-1942-8086-8006-99a17d5143c3-0"/></clipPath><path d="M0,599.02001953125C0,268.18994140625,229.22999572753906,0,512,0C794.77001953125,0,1024,268.18994140625,1024,599.02001953125C1024,929.85009765625,794.77001953125,1198.0400390625,512,1198.0400390625C229.22999572753906,1198.0400390625,0,929.85009765625,0,599.02001953125Z" id="stroke-shape-render-4-4192aaeb-1942-8086-8006-99a17d5143c3-0" style="fill: none; stroke-width: 20; stroke: rgb(66, 0, 83); stroke-opacity: 1;"/></defs><use href="#stroke-shape-render-4-4192aaeb-1942-8086-8006-99a17d5143c3-0" clip-path="url('#inner-stroke-render-4-4192aaeb-1942-8086-8006-99a17d5143c3-0')"/></g></g></g></g><g id="shape-4192aaeb-1942-8086-8006-99a17d5143c4" clip-path="url(#render-5-a)" rx="0" ry="0" style="fill: rgb(0, 0, 0);"><defs><clipPath id="render-5-a" class="svg-def" transform="matrix(1.000000, 0.000000, 0.000000, 1.000000, 0.000000, 0.000000)"><rect height="1024" width="1024"/></clipPath></defs><g id="shape-4192aaeb-1942-8086-8006-99a17d51a1b3"><g class="fills" id="fills-4192aaeb-1942-8086-8006-99a17d51a1b3"><path d="M453.90399169921875,62.139404296875C439.5679931640625,62.040283203125,425.1189880371094,63.039794921875,410.6510009765625,65.196044921875C256.3269958496094,88.196533203125,158.41400146484375,234.718994140625,191.968994140625,392.469970703125C215.0279998779297,500.873046875,294.1600036621094,586.39013671875,391.4909973144531,621.80712890625L391.4909973144531,740.6240234375L391.4909973144531,744.79296875C385.0820007324219,742.81396484375,378.25,741.56689453125,371.04998779296875,741.06103515625C368.4410095214844,740.8779296875,365.875,740.6201171875,363.1780090332031,740.6240234375C311.50201416015625,740.70703125,244.6020050048828,774.916015625,193.62899780273438,831.73193359375C125.66600036621094,907.487060546875,111.74700164794922,994.77685546875,162.51800537109375,1026.68994140625C196.19000244140625,1047.85986328125,249.8350067138672,1039.169921875,301.99798583984375,1008.949951171875L301.99798583984375,1087.43017578125C301.99798583984375,1123.35009765625,336.76800537109375,1152.4599609375,379.6820068359375,1152.4599609375L619.6580200195312,1152.4599609375C662.572998046875,1152.4599609375,697.343017578125,1123.35009765625,697.343017578125,1087.43017578125L697.343017578125,1054.0400390625C723.8060302734375,1066.8701171875,750.5369873046875,1070.800048828125,773.698974609375,1063.02001953125C832.6199951171875,1043.2099609375,846.1710205078125,955.89404296875,804.0040283203125,867.97705078125C767.1079711914062,791.050048828125,699.77001953125,739.169921875,644.0349731445312,740.6640625C640.4080200195312,740.760986328125,636.833984375,741.138916015625,633.3170166015625,741.696044921875C629.114013671875,742.362060546875,624.9959716796875,743.325927734375,620.9860229492188,744.674072265625C616.2899780273438,746.251953125,611.9639892578125,748.385009765625,607.8489990234375,750.787109375L607.8489990234375,740.6240234375L607.8489990234375,613.43115234375C662.1119995117188,587.593017578125,704.4080200195312,544.1728515625,730.0189819335938,491.1201171875L688.5689697265625,497.631103515625L531.9199829101562,522.2041015625L499.6700134277344,481.8310546875L757.052001953125,377.26513671875C757.5349731445312,355.01806640625,755.7479858398438,332.260986328125,750.8389892578125,309.18212890625C720.4299926757812,166.220947265625,592.4879760742188,63.098388671875,453.90399169921875,62.139404296875Z" stroke-miterlimit="10" style="fill-rule: nonzero; clip-rule: evenodd; stroke-linecap: round; stroke-linejoin: round; fill: rgb(66, 0, 83);"/></g></g><g id="shape-4192aaeb-1942-8086-8006-99a17d51f019"><g class="fills" id="fills-4192aaeb-1942-8086-8006-99a17d51f019"><path d="M772.469970703125,409.64404296875L918.0609741210938,304.763916015625" stroke-miterlimit="10" fill="none" style="fill-rule: nonzero; clip-rule: evenodd; stroke-linecap: round; stroke-linejoin: round; fill: none;"/></g><g stroke-miterlimit="10" fill="none" id="strokes-c50c3792-00a5-80dc-8006-99acd0839af5-4192aaeb-1942-8086-8006-99a17d51f019" class="strokes" style="fill-rule: nonzero; clip-rule: evenodd; stroke-linecap: round; stroke-linejoin: round;"><g class="stroke-shape"><path d="M772.469970703125,409.64404296875L918.0609741210938,304.763916015625" style="fill: none; stroke-width: 10; stroke: rgb(66, 0, 83); stroke-opacity: 1;"/></g></g></g><g id="shape-4192aaeb-1942-8086-8006-99a17d51f01a"><g class="fills" id="fills-4192aaeb-1942-8086-8006-99a17d51f01a"><path d="M774.5399780273438,444.8349609375L941.52099609375,393.77392578125" stroke-miterlimit="10" fill="none" style="fill-rule: nonzero; clip-rule: evenodd; stroke-linecap: round; stroke-linejoin: round; fill: none;"/></g><g stroke-miterlimit="10" fill="none" id="strokes-c50c3792-00a5-80dc-8006-99acd0842354-4192aaeb-1942-8086-8006-99a17d51f01a" class="strokes" style="fill-rule: nonzero; clip-rule: evenodd; stroke-linecap: round; stroke-linejoin: round;"><g class="stroke-shape"><path d="M774.5399780273438,444.8349609375L941.52099609375,393.77392578125" style="fill: none; stroke-width: 10; stroke: rgb(66, 0, 83); stroke-opacity: 1;"/></g></g></g><g id="shape-4192aaeb-1942-8086-8006-99a17d51f01b"><g class="fills" id="fills-4192aaeb-1942-8086-8006-99a17d51f01b"><path d="M772.469970703125,483.5849609375L941.52099609375,512" stroke-miterlimit="10" fill="none" style="fill-rule: nonzero; clip-rule: evenodd; stroke-linecap: round; stroke-linejoin: round; fill: none;"/></g><g stroke-miterlimit="10" fill="none" id="strokes-c50c3792-00a5-80dc-8006-99acd0852cdc-4192aaeb-1942-8086-8006-99a17d51f01b" class="strokes" style="fill-rule: nonzero; clip-rule: evenodd; stroke-linecap: round; stroke-linejoin: round;"><g class="stroke-shape"><path d="M772.469970703125,483.5849609375L941.52099609375,512" style="fill: none; stroke-width: 10; stroke: rgb(66, 0, 83); stroke-opacity: 1;"/></g></g></g></g><g id="shape-4192aaeb-1942-8086-8006-99a17d51f01c" rx="0" ry="0" style="fill: rgb(0, 0, 0);"><g id="shape-4192aaeb-1942-8086-8006-99a17d5218bf"><g class="fills" id="fills-4192aaeb-1942-8086-8006-99a17d5218bf"><path d="M395.2200012207031,200.967041015625L367.0119934082031,289.049072265625L351.4519958496094,284.06689453125L374.1520080566406,213.18603515625L335.5989990234375,200.839111328125L315.6409912109375,263.1630859375L300.5140075683594,258.31787109375L320.47198486328125,195.9951171875L262.7300109863281,177.5029296875L268.239013671875,160.302001953125L395.2200012207031,200.967041015625Z" stroke-linecap="butt" stroke-miterlimit="10" style="fill-rule: nonzero; clip-rule: evenodd; stroke-linejoin: round; fill: rgb(66, 0, 83); fill-opacity: 1;"/></g><g stroke-linecap="butt" stroke-miterlimit="10" id="strokes-c50c3792-00a5-80dc-8006-99acd085f329-4192aaeb-1942-8086-8006-99a17d5218bf" class="strokes" style="fill-rule: nonzero; clip-rule: evenodd; stroke-linejoin: round;"><g class="stroke-shape"><path d="M395.2200012207031,200.967041015625L367.0119934082031,289.049072265625L351.4519958496094,284.06689453125L374.1520080566406,213.18603515625L335.5989990234375,200.839111328125L315.6409912109375,263.1630859375L300.5140075683594,258.31787109375L320.47198486328125,195.9951171875L262.7300109863281,177.5029296875L268.239013671875,160.302001953125L395.2200012207031,200.967041015625Z" style="fill: none; stroke-width: 10; stroke: rgb(198, 198, 198); stroke-opacity: 1;"/></g></g></g><g id="shape-4192aaeb-1942-8086-8006-99a17d5218c0"><g class="fills" id="fills-4192aaeb-1942-8086-8006-99a17d5218c0"><path d="M368.8039855957031,321.77197265625L287.1109924316406,310.89208984375C277.5140075683594,309.613037109375,269.2969970703125,310.35009765625,262.4599914550781,313.10205078125C252.15199279785156,317.162109375,246.156005859375,325.52001953125,244.47000122070312,338.176025390625C242.44900512695312,353.35107421875,246.26300048828125,364.35888671875,255.91299438476562,371.198974609375C261.1600036621094,374.888916015625,268.5509948730469,377.368896484375,278.0880126953125,378.638916015625L359.781005859375,389.52001953125L357.3599853515625,407.694091796875L283.135009765625,397.80810546875C266.8810119628906,395.64306640625,254.66600036621094,391.7880859375,246.49200439453125,386.242919921875C231.60800170898438,376.0810546875,225.65199279785156,359.843017578125,228.62399291992188,337.531005859375C231.59500122070312,315.218017578125,241.58999633789062,301.135986328125,258.60699462890625,295.282958984375C267.9469909667969,292.071044921875,280.7449951171875,291.546875,296.9989929199219,293.7119140625L371.2250061035156,303.597900390625L368.8039855957031,321.77197265625Z" stroke-linecap="butt" stroke-miterlimit="10" style="fill-rule: nonzero; clip-rule: evenodd; stroke-linejoin: round; fill: rgb(66, 0, 83); fill-opacity: 1;"/></g><g stroke-linecap="butt" stroke-miterlimit="10" id="strokes-c50c3792-00a5-80dc-8006-99acd0865a14-4192aaeb-1942-8086-8006-99a17d5218c0" class="strokes" style="fill-rule: nonzero; clip-rule: evenodd; stroke-linejoin: round;"><g class="stroke-shape"><path d="M368.8039855957031,321.77197265625L287.1109924316406,310.89208984375C277.5140075683594,309.613037109375,269.2969970703125,310.35009765625,262.4599914550781,313.10205078125C252.15199279785156,317.162109375,246.156005859375,325.52001953125,244.47000122070312,338.176025390625C242.44900512695312,353.35107421875,246.26300048828125,364.35888671875,255.91299438476562,371.198974609375C261.1600036621094,374.888916015625,268.5509948730469,377.368896484375,278.0880126953125,378.638916015625L359.781005859375,389.52001953125L357.3599853515625,407.694091796875L283.135009765625,397.80810546875C266.8810119628906,395.64306640625,254.66600036621094,391.7880859375,246.49200439453125,386.242919921875C231.60800170898438,376.0810546875,225.65199279785156,359.843017578125,228.62399291992188,337.531005859375C231.59500122070312,315.218017578125,241.58999633789062,301.135986328125,258.60699462890625,295.282958984375C267.9469909667969,292.071044921875,280.7449951171875,291.546875,296.9989929199219,293.7119140625L371.2250061035156,303.597900390625L368.8039855957031,321.77197265625Z" style="fill: none; stroke-width: 10; stroke: rgb(198, 198, 198); stroke-opacity: 1;"/></g></g></g><g id="shape-4192aaeb-1942-8086-8006-99a17d52753c"><g class="fills" id="fills-4192aaeb-1942-8086-8006-99a17d52753c"><path d="M305.38299560546875,496.4609375C302.1610107421875,503.31689453125,300.81298828125,509.569091796875,301.3389892578125,515.217041015625C302.4110107421875,525.8369140625,309.60198974609375,534.741943359375,322.9129943847656,541.93115234375C328.8760070800781,545.15087890625,334.7659912109375,547.23193359375,340.5840148925781,548.174072265625C351.843994140625,549.991943359375,359.77398681640625,546.64111328125,364.375,538.123046875C367.82598876953125,531.73388671875,368.2879943847656,526.10400390625,365.760986328125,521.23193359375C363.15301513671875,516.384033203125,358.0679931640625,510.64599609375,350.5069885253906,504.01806640625L336.5559997558594,491.841064453125C327.4389953613281,483.89111328125,321.48699951171875,477.341064453125,318.697998046875,472.18994140625C313.8900146484375,463.26611328125,314.11700439453125,453.93212890625,319.3800048828125,444.18896484375C325.072998046875,433.64794921875,333.39300537109375,426.966064453125,344.3389892578125,424.14404296875C355.2850036621094,421.322021484375,367.4389953613281,423.52001953125,380.8030090332031,430.737060546875C393.10101318359375,437.3798828125,401.9460144042969,445.990966796875,407.3389892578125,456.572021484375C412.7309875488281,467.152099609375,411.90399169921875,478.9638671875,404.8590087890625,492.008056640625L389.92498779296875,483.94189453125C392.5199890136719,477.22802734375,393.4179992675781,471.489990234375,392.6210021972656,466.72705078125C391.0830078125,457.987060546875,384.510986328125,450.48291015625,372.9049987792969,444.215087890625C363.53399658203125,439.154052734375,355.7349853515625,437.486083984375,349.50799560546875,439.2109375C343.281005859375,440.93701171875,338.75799560546875,444.408935546875,335.94000244140625,449.6259765625C332.8340148925781,455.3759765625,332.9580078125,460.8759765625,336.31201171875,466.1259765625C338.5329895019531,469.52587890625,344.4909973144531,475.4951171875,354.1839904785156,484.031982421875L368.6080017089844,496.6708984375C375.56298828125,502.76513671875,380.3489990234375,508.548095703125,382.9649963378906,514.01806640625C387.4570007324219,523.528076171875,386.885009765625,533.5,381.24798583984375,543.93505859375C374.23199462890625,556.926025390625,364.489013671875,563.6640625,352.0199890136719,564.14990234375C339.54998779296875,564.636962890625,327.05999755859375,561.5009765625,314.5480041503906,554.742919921875C299.9599914550781,546.864013671875,290.5530090332031,536.968994140625,286.3269958496094,525.05908203125C282.0710144042969,513.200927734375,283.44500732421875,500.97998046875,290.4490051269531,488.39501953125L305.38299560546875,496.4609375Z" stroke-linecap="butt" stroke-miterlimit="10" style="fill-rule: nonzero; clip-rule: evenodd; stroke-linejoin: round; fill: rgb(66, 0, 83); fill-opacity: 1;"/></g><g stroke-linecap="butt" stroke-miterlimit="10" id="strokes-c50c3792-00a5-80dc-8006-99acd087f8dc-4192aaeb-1942-8086-8006-99a17d52753c" class="strokes" style="fill-rule: nonzero; clip-rule: evenodd; stroke-linejoin: round;"><g class="stroke-shape"><path d="M305.38299560546875,496.4609375C302.1610107421875,503.31689453125,300.81298828125,509.569091796875,301.3389892578125,515.217041015625C302.4110107421875,525.8369140625,309.60198974609375,534.741943359375,322.9129943847656,541.93115234375C328.8760070800781,545.15087890625,334.7659912109375,547.23193359375,340.5840148925781,548.174072265625C351.843994140625,549.991943359375,359.77398681640625,546.64111328125,364.375,538.123046875C367.82598876953125,531.73388671875,368.2879943847656,526.10400390625,365.760986328125,521.23193359375C363.15301513671875,516.384033203125,358.0679931640625,510.64599609375,350.5069885253906,504.01806640625L336.5559997558594,491.841064453125C327.4389953613281,483.89111328125,321.48699951171875,477.341064453125,318.697998046875,472.18994140625C313.8900146484375,463.26611328125,314.11700439453125,453.93212890625,319.3800048828125,444.18896484375C325.072998046875,433.64794921875,333.39300537109375,426.966064453125,344.3389892578125,424.14404296875C355.2850036621094,421.322021484375,367.4389953613281,423.52001953125,380.8030090332031,430.737060546875C393.10101318359375,437.3798828125,401.9460144042969,445.990966796875,407.3389892578125,456.572021484375C412.7309875488281,467.152099609375,411.90399169921875,478.9638671875,404.8590087890625,492.008056640625L389.92498779296875,483.94189453125C392.5199890136719,477.22802734375,393.4179992675781,471.489990234375,392.6210021972656,466.72705078125C391.0830078125,457.987060546875,384.510986328125,450.48291015625,372.9049987792969,444.215087890625C363.53399658203125,439.154052734375,355.7349853515625,437.486083984375,349.50799560546875,439.2109375C343.281005859375,440.93701171875,338.75799560546875,444.408935546875,335.94000244140625,449.6259765625C332.8340148925781,455.3759765625,332.9580078125,460.8759765625,336.31201171875,466.1259765625C338.5329895019531,469.52587890625,344.4909973144531,475.4951171875,354.1839904785156,484.031982421875L368.6080017089844,496.6708984375C375.56298828125,502.76513671875,380.3489990234375,508.548095703125,382.9649963378906,514.01806640625C387.4570007324219,523.528076171875,386.885009765625,533.5,381.24798583984375,543.93505859375C374.23199462890625,556.926025390625,364.489013671875,563.6640625,352.0199890136719,564.14990234375C339.54998779296875,564.636962890625,327.05999755859375,561.5009765625,314.5480041503906,554.742919921875C299.9599914550781,546.864013671875,290.5530090332031,536.968994140625,286.3269958496094,525.05908203125C282.0710144042969,513.200927734375,283.44500732421875,500.97998046875,290.4490051269531,488.39501953125L305.38299560546875,496.4609375Z" style="fill: none; stroke-width: 10; stroke: rgb(198, 198, 198); stroke-opacity: 1;"/></g></g></g><g id="shape-4192aaeb-1942-8086-8006-99a17d52753d"><g class="fills" id="fills-4192aaeb-1942-8086-8006-99a17d52753d"><path d="M504.52398681640625,532.98193359375L512.541015625,549.369140625L463.0530090332031,573.58203125L493.52899169921875,635.87109375L543.0170288085938,611.657958984375L551.0349731445312,628.044921875L431.2690124511719,686.64306640625L423.2510070800781,670.255859375L479.2619934082031,642.85107421875L448.7860107421875,580.56298828125L392.7749938964844,607.968017578125L384.7569885253906,591.580078125L504.52398681640625,532.98193359375Z" stroke-linecap="butt" stroke-miterlimit="10" style="fill-rule: nonzero; clip-rule: evenodd; stroke-linejoin: round; fill: rgb(66, 0, 83); fill-opacity: 1;"/></g><g stroke-linecap="butt" stroke-miterlimit="10" id="strokes-c50c3792-00a5-80dc-8006-99acd0887e65-4192aaeb-1942-8086-8006-99a17d52753d" class="strokes" style="fill-rule: nonzero; clip-rule: evenodd; stroke-linejoin: round;"><g class="stroke-shape"><path d="M504.52398681640625,532.98193359375L512.541015625,549.369140625L463.0530090332031,573.58203125L493.52899169921875,635.87109375L543.0170288085938,611.657958984375L551.0349731445312,628.044921875L431.2690124511719,686.64306640625L423.2510070800781,670.255859375L479.2619934082031,642.85107421875L448.7860107421875,580.56298828125L392.7749938964844,607.968017578125L384.7569885253906,591.580078125L504.52398681640625,532.98193359375Z" style="fill: none; stroke-width: 10; stroke: rgb(198, 198, 198); stroke-opacity: 1;"/></g></g></g><g id="shape-4192aaeb-1942-8086-8006-99a17d5286b1"><g class="fills" id="fills-4192aaeb-1942-8086-8006-99a17d5286b1"><path d="M571.7659912109375,710.31884765625L572.8489990234375,728.530029296875L439.7510070800781,736.447998046875L438.6679992675781,718.236083984375L571.7659912109375,710.31884765625Z" stroke-linecap="butt" stroke-miterlimit="10" style="fill-rule: nonzero; clip-rule: evenodd; stroke-linejoin: round; fill: rgb(66, 0, 83); fill-opacity: 1;"/></g><g stroke-linecap="butt" stroke-miterlimit="10" id="strokes-c50c3792-00a5-80dc-8006-99acd0889fba-4192aaeb-1942-8086-8006-99a17d5286b1" class="strokes" style="fill-rule: nonzero; clip-rule: evenodd; stroke-linejoin: round;"><g class="stroke-shape"><path d="M571.7659912109375,710.31884765625L572.8489990234375,728.530029296875L439.7510070800781,736.447998046875L438.6679992675781,718.236083984375L571.7659912109375,710.31884765625Z" style="fill: none; stroke-width: 10; stroke: rgb(198, 198, 198); stroke-opacity: 1;"/></g></g></g><g id="shape-4192aaeb-1942-8086-8006-99a17d5286b2"><g class="fills" id="fills-4192aaeb-1942-8086-8006-99a17d5286b2"><path d="M607.5759887695312,790.533935546875C612.6810302734375,801.971923828125,614.885009765625,812.84912109375,614.1890258789062,823.166015625C613.2349853515625,838.10302734375,605.405029296875,850.47607421875,590.7000122070312,860.2861328125L583.4130249023438,843.9580078125C591.4210205078125,837.9990234375,596.06298828125,830.989990234375,597.3369750976562,822.93408203125C598.6119995117188,814.876953125,597.1279907226562,806.096923828125,592.885986328125,796.593017578125C587.8560180664062,785.321044921875,579.3930053710938,777.717041015625,567.4979858398438,773.781982421875C555.60400390625,769.846923828125,541.2860107421875,771.614990234375,524.5430297851562,779.087890625C510.0660095214844,785.549072265625,499.70001220703125,793.98486328125,493.4469909667969,804.39697265625C487.1929931640625,814.80810546875,487.2720031738281,827.197021484375,493.6839904785156,841.56298828125C498.5920104980469,852.55908203125,505.84600830078125,860.239013671875,515.4459838867188,864.60107421875C525.0469970703125,868.9638671875,537.0120239257812,868.046875,551.3419799804688,861.85009765625L534.3259887695312,823.72314453125L548.0020141601562,817.619140625L571.8610229492188,871.080078125L506.7139892578125,900.155029296875L501.97900390625,889.5458984375L515.8690185546875,878.575927734375C507.2449951171875,875.73291015625,500.7829895019531,872.68603515625,496.4830017089844,869.43701171875C489.16400146484375,864.02294921875,483.01300048828125,855.73486328125,478.031005859375,844.573974609375C471.5950012207031,830.15185546875,470.72698974609375,815.6630859375,475.4289855957031,801.10693359375C482.0880126953125,784.551025390625,495.6400146484375,771.7109375,516.0850219726562,762.5859375C536.4739990234375,753.486083984375,555.1580200195312,751.77392578125,572.135986328125,757.448974609375C588.3150024414062,762.81787109375,600.1290283203125,773.845947265625,607.5759887695312,790.533935546875Z" stroke-linecap="butt" stroke-miterlimit="10" style="fill-rule: nonzero; clip-rule: evenodd; stroke-linejoin: round; fill: rgb(66, 0, 83); fill-opacity: 1;"/></g><g stroke-linecap="butt" stroke-miterlimit="10" id="strokes-c50c3792-00a5-80dc-8006-99acd08953fb-4192aaeb-1942-8086-8006-99a17d5286b2" class="strokes" style="fill-rule: nonzero; clip-rule: evenodd; stroke-linejoin: round;"><g class="stroke-shape"><path d="M607.5759887695312,790.533935546875C612.6810302734375,801.971923828125,614.885009765625,812.84912109375,614.1890258789062,823.166015625C613.2349853515625,838.10302734375,605.405029296875,850.47607421875,590.7000122070312,860.2861328125L583.4130249023438,843.9580078125C591.4210205078125,837.9990234375,596.06298828125,830.989990234375,597.3369750976562,822.93408203125C598.6119995117188,814.876953125,597.1279907226562,806.096923828125,592.885986328125,796.593017578125C587.8560180664062,785.321044921875,579.3930053710938,777.717041015625,567.4979858398438,773.781982421875C555.60400390625,769.846923828125,541.2860107421875,771.614990234375,524.5430297851562,779.087890625C510.0660095214844,785.549072265625,499.70001220703125,793.98486328125,493.4469909667969,804.39697265625C487.1929931640625,814.80810546875,487.2720031738281,827.197021484375,493.6839904785156,841.56298828125C498.5920104980469,852.55908203125,505.84600830078125,860.239013671875,515.4459838867188,864.60107421875C525.0469970703125,868.9638671875,537.0120239257812,868.046875,551.3419799804688,861.85009765625L534.3259887695312,823.72314453125L548.0020141601562,817.619140625L571.8610229492188,871.080078125L506.7139892578125,900.155029296875L501.97900390625,889.5458984375L515.8690185546875,878.575927734375C507.2449951171875,875.73291015625,500.7829895019531,872.68603515625,496.4830017089844,869.43701171875C489.16400146484375,864.02294921875,483.01300048828125,855.73486328125,478.031005859375,844.573974609375C471.5950012207031,830.15185546875,470.72698974609375,815.6630859375,475.4289855957031,801.10693359375C482.0880126953125,784.551025390625,495.6400146484375,771.7109375,516.0850219726562,762.5859375C536.4739990234375,753.486083984375,555.1580200195312,751.77392578125,572.135986328125,757.448974609375C588.3150024414062,762.81787109375,600.1290283203125,773.845947265625,607.5759887695312,790.533935546875Z" style="fill: none; stroke-width: 10; stroke: rgb(198, 198, 198); stroke-opacity: 1;"/></g></g></g><g id="shape-4192aaeb-1942-8086-8006-99a17d5286b3"><g class="fills" id="fills-4192aaeb-1942-8086-8006-99a17d5286b3"><path d="M640.9089965820312,870.2470703125L648.9199829101562,886.637939453125L529.1300048828125,945.18701171875L521.1190185546875,928.796875L640.9089965820312,870.2470703125Z" stroke-linecap="butt" stroke-miterlimit="10" style="fill-rule: nonzero; clip-rule: evenodd; stroke-linejoin: round; fill: rgb(66, 0, 83); fill-opacity: 1;"/></g><g stroke-linecap="butt" stroke-miterlimit="10" id="strokes-c50c3792-00a5-80dc-8006-99acd089f435-4192aaeb-1942-8086-8006-99a17d5286b3" class="strokes" style="fill-rule: nonzero; clip-rule: evenodd; stroke-linejoin: round;"><g class="stroke-shape"><path d="M640.9089965820312,870.2470703125L648.9199829101562,886.637939453125L529.1300048828125,945.18701171875L521.1190185546875,928.796875L640.9089965820312,870.2470703125Z" style="fill: none; stroke-width: 10; stroke: rgb(198, 198, 198); stroke-opacity: 1;"/></g></g></g></g></g></svg>
