<svg width="1024" xmlns="http://www.w3.org/2000/svg" height="1198.04" id="screenshot-4192aaeb-1942-8086-8006-99a17d50fcf6" viewBox="0 0 1024 1198.04" xmlns:xlink="http://www.w3.org/1999/xlink" fill="none" version="1.1"><g id="shape-4192aaeb-1942-8086-8006-99a17d50fcf6" clip-path="url(#render-1-a)" rx="0" ry="0" style="fill: rgb(0, 0, 0);"><defs><clipPath id="render-1-a" class="svg-def" transform="matrix(1.000000, 0.000000, 0.000000, 1.000000, 0.000000, 0.000000)"><rect height="1024" width="1024"/></clipPath></defs><g id="shape-4192aaeb-1942-8086-8006-99a17d5143c3"><g class="fills" id="fills-4192aaeb-1942-8086-8006-99a17d5143c3"><path d="M0,599.02001953125C0,268.18994140625,229.22999572753906,0,512,0C794.77001953125,0,1024,268.18994140625,1024,599.02001953125C1024,929.85009765625,794.77001953125,1198.0400390625,512,1198.0400390625C229.22999572753906,1198.0400390625,0,929.85009765625,0,599.02001953125Z" stroke-miterlimit="10" stroke-linecap="butt" style="fill-rule: nonzero; clip-rule: evenodd; stroke-linejoin: round; fill: rgb(198, 198, 198);"/></g><g stroke-miterlimit="10" stroke-linecap="butt" id="strokes-ba3a0ca2-a97e-8099-8006-99a3cf2bbc74-4192aaeb-1942-8086-8006-99a17d5143c3" class="strokes" style="fill-rule: nonzero; clip-rule: evenodd; stroke-linejoin: round;"><g class="inner-stroke-shape"><defs><clipPath id="inner-stroke-render-2-4192aaeb-1942-8086-8006-99a17d5143c3-0"><use href="#stroke-shape-render-2-4192aaeb-1942-8086-8006-99a17d5143c3-0"/></clipPath><path d="M0,599.02001953125C0,268.18994140625,229.22999572753906,0,512,0C794.77001953125,0,1024,268.18994140625,1024,599.02001953125C1024,929.85009765625,794.77001953125,1198.0400390625,512,1198.0400390625C229.22999572753906,1198.0400390625,0,929.85009765625,0,599.02001953125Z" id="stroke-shape-render-2-4192aaeb-1942-8086-8006-99a17d5143c3-0" style="fill: none; stroke-width: 20; stroke: rgb(66, 0, 83); stroke-opacity: 1;"/></defs><use href="#stroke-shape-render-2-4192aaeb-1942-8086-8006-99a17d5143c3-0" clip-path="url('#inner-stroke-render-2-4192aaeb-1942-8086-8006-99a17d5143c3-0')"/></g></g></g></g></svg>