<svg width="421.038" xmlns="http://www.w3.org/2000/svg" height="784.885" id="screenshot-4192aaeb-1942-8086-8006-99a17d51f01c" viewBox="0 0 421.038 784.885" xmlns:xlink="http://www.w3.org/1999/xlink" fill="none" version="1.1"><g id="shape-4192aaeb-1942-8086-8006-99a17d51f01c" rx="0" ry="0" style="fill: rgb(0, 0, 0);"><g id="shape-4192aaeb-1942-8086-8006-99a17d5218bf"><g class="fills" id="fills-4192aaeb-1942-8086-8006-99a17d5218bf"><path d="M167.3380126953125,40.6650390625L139.1300048828125,128.7470703125L123.57000732421875,123.764892578125L146.27001953125,52.884033203125L107.71701049804688,40.537109375L87.75900268554688,102.861083984375L72.63201904296875,98.015869140625L92.58999633789062,35.693115234375L34.848018646240234,17.200927734375L40.35702133178711,0L167.3380126953125,40.6650390625Z" stroke-linecap="butt" stroke-miterlimit="10" style="fill-rule: nonzero; clip-rule: evenodd; stroke-linejoin: round; fill: rgb(66, 0, 83); fill-opacity: 1;"/></g><g stroke-linecap="butt" stroke-miterlimit="10" id="strokes-7fc7910a-b004-80e7-8006-99a3ba11e9cd-4192aaeb-1942-8086-8006-99a17d5218bf" class="strokes" style="fill-rule: nonzero; clip-rule: evenodd; stroke-linejoin: round;"><g class="stroke-shape"><path d="M167.3380126953125,40.6650390625L139.1300048828125,128.7470703125L123.57000732421875,123.764892578125L146.27001953125,52.884033203125L107.71701049804688,40.537109375L87.75900268554688,102.861083984375L72.63201904296875,98.015869140625L92.58999633789062,35.693115234375L34.848018646240234,17.200927734375L40.35702133178711,0L167.3380126953125,40.6650390625Z" style="fill: none; stroke-width: 10; stroke: rgb(198, 198, 198); stroke-opacity: 1;"/></g></g></g><g id="shape-4192aaeb-1942-8086-8006-99a17d5218c0"><g class="fills" id="fills-4192aaeb-1942-8086-8006-99a17d5218c0"><path d="M140.9219970703125,161.469970703125L59.229000091552734,150.590087890625C49.632015228271484,149.31103515625,41.41500473022461,150.048095703125,34.577999114990234,152.800048828125C24.270000457763672,156.860107421875,18.27401351928711,165.218017578125,16.588008880615234,177.8740234375C14.567012786865234,193.049072265625,18.38100814819336,204.056884765625,28.031002044677734,210.89697265625C33.278011322021484,214.5869140625,40.669002532958984,217.06689453125,50.20602035522461,218.3369140625L131.89901733398438,229.218017578125L129.47799682617188,247.39208984375L55.25301742553711,237.506103515625C38.999019622802734,235.341064453125,26.784008026123047,231.486083984375,18.61001205444336,225.94091796875C3.7260096073150635,215.779052734375,-2.229999303817749,199.541015625,0.7420006990432739,177.22900390625C3.7130091190338135,154.916015625,13.708003997802734,140.833984375,30.72500228881836,134.98095703125C40.064998626708984,131.76904296875,52.86300277709961,131.244873046875,69.11700439453125,133.409912109375L143.343017578125,143.2958984375L140.9219970703125,161.469970703125Z" stroke-linecap="butt" stroke-miterlimit="10" style="fill-rule: nonzero; clip-rule: evenodd; stroke-linejoin: round; fill: rgb(66, 0, 83); fill-opacity: 1;"/></g><g stroke-linecap="butt" stroke-miterlimit="10" id="strokes-7fc7910a-b004-80e7-8006-99a3ba12f037-4192aaeb-1942-8086-8006-99a17d5218c0" class="strokes" style="fill-rule: nonzero; clip-rule: evenodd; stroke-linejoin: round;"><g class="stroke-shape"><path d="M140.9219970703125,161.469970703125L59.229000091552734,150.590087890625C49.632015228271484,149.31103515625,41.41500473022461,150.048095703125,34.577999114990234,152.800048828125C24.270000457763672,156.860107421875,18.27401351928711,165.218017578125,16.588008880615234,177.8740234375C14.567012786865234,193.049072265625,18.38100814819336,204.056884765625,28.031002044677734,210.89697265625C33.278011322021484,214.5869140625,40.669002532958984,217.06689453125,50.20602035522461,218.3369140625L131.89901733398438,229.218017578125L129.47799682617188,247.39208984375L55.25301742553711,237.506103515625C38.999019622802734,235.341064453125,26.784008026123047,231.486083984375,18.61001205444336,225.94091796875C3.7260096073150635,215.779052734375,-2.229999303817749,199.541015625,0.7420006990432739,177.22900390625C3.7130091190338135,154.916015625,13.708003997802734,140.833984375,30.72500228881836,134.98095703125C40.064998626708984,131.76904296875,52.86300277709961,131.244873046875,69.11700439453125,133.409912109375L143.343017578125,143.2958984375L140.9219970703125,161.469970703125Z" style="fill: none; stroke-width: 10; stroke: rgb(198, 198, 198); stroke-opacity: 1;"/></g></g></g><g id="shape-4192aaeb-1942-8086-8006-99a17d52753c"><g class="fills" id="fills-4192aaeb-1942-8086-8006-99a17d52753c"><path d="M77.50100708007812,336.158935546875C74.27902221679688,343.014892578125,72.93099975585938,349.26708984375,73.45700073242188,354.9150390625C74.52902221679688,365.534912109375,81.72000122070312,374.43994140625,95.031005859375,381.629150390625C100.9940185546875,384.848876953125,106.88400268554688,386.929931640625,112.7020263671875,387.8720703125C123.96200561523438,389.68994140625,131.89199829101562,386.339111328125,136.49301147460938,377.821044921875C139.94400024414062,371.431884765625,140.406005859375,365.802001953125,137.87899780273438,360.929931640625C135.27102661132812,356.08203125,130.18600463867188,350.343994140625,122.625,343.716064453125L108.67401123046875,331.5390625C99.5570068359375,323.589111328125,93.60501098632812,317.0390625,90.81600952148438,311.887939453125C86.00802612304688,302.964111328125,86.23501586914062,293.630126953125,91.49801635742188,283.886962890625C97.19100952148438,273.345947265625,105.51101684570312,266.6640625,116.45700073242188,263.842041015625C127.40301513671875,261.02001953125,139.5570068359375,263.218017578125,152.9210205078125,270.43505859375C165.21902465820312,277.077880859375,174.06402587890625,285.68896484375,179.45700073242188,296.27001953125C184.8489990234375,306.85009765625,184.02200317382812,318.661865234375,176.97702026367188,331.7060546875L162.04299926757812,323.639892578125C164.63800048828125,316.926025390625,165.5360107421875,311.18798828125,164.739013671875,306.425048828125C163.20101928710938,297.68505859375,156.62899780273438,290.180908203125,145.02301025390625,283.9130859375C135.65200805664062,278.85205078125,127.85299682617188,277.18408203125,121.62600708007812,278.908935546875C115.39901733398438,280.635009765625,110.87600708007812,284.10693359375,108.05801391601562,289.323974609375C104.9520263671875,295.073974609375,105.07601928710938,300.573974609375,108.43002319335938,305.823974609375C110.6510009765625,309.223876953125,116.6090087890625,315.193115234375,126.302001953125,323.72998046875L140.72601318359375,336.368896484375C147.68099975585938,342.463134765625,152.46701049804688,348.24609375,155.0830078125,353.716064453125C159.57501220703125,363.22607421875,159.00302124023438,373.197998046875,153.36599731445312,383.633056640625C146.35000610351562,396.6240234375,136.60702514648438,403.362060546875,124.13800048828125,403.847900390625C111.66799926757812,404.3349609375,99.17800903320312,401.198974609375,86.666015625,394.44091796875C72.0780029296875,386.56201171875,62.671016693115234,376.6669921875,58.445003509521484,364.757080078125C54.189022064208984,352.89892578125,55.56301498413086,340.677978515625,62.567012786865234,328.093017578125L77.50100708007812,336.158935546875Z" stroke-linecap="butt" stroke-miterlimit="10" style="fill-rule: nonzero; clip-rule: evenodd; stroke-linejoin: round; fill: rgb(66, 0, 83); fill-opacity: 1;"/></g><g stroke-linecap="butt" stroke-miterlimit="10" id="strokes-7fc7910a-b004-80e7-8006-99a3ba1367b8-4192aaeb-1942-8086-8006-99a17d52753c" class="strokes" style="fill-rule: nonzero; clip-rule: evenodd; stroke-linejoin: round;"><g class="stroke-shape"><path d="M77.50100708007812,336.158935546875C74.27902221679688,343.014892578125,72.93099975585938,349.26708984375,73.45700073242188,354.9150390625C74.52902221679688,365.534912109375,81.72000122070312,374.43994140625,95.031005859375,381.629150390625C100.9940185546875,384.848876953125,106.88400268554688,386.929931640625,112.7020263671875,387.8720703125C123.96200561523438,389.68994140625,131.89199829101562,386.339111328125,136.49301147460938,377.821044921875C139.94400024414062,371.431884765625,140.406005859375,365.802001953125,137.87899780273438,360.929931640625C135.27102661132812,356.08203125,130.18600463867188,350.343994140625,122.625,343.716064453125L108.67401123046875,331.5390625C99.5570068359375,323.589111328125,93.60501098632812,317.0390625,90.81600952148438,311.887939453125C86.00802612304688,302.964111328125,86.23501586914062,293.630126953125,91.49801635742188,283.886962890625C97.19100952148438,273.345947265625,105.51101684570312,266.6640625,116.45700073242188,263.842041015625C127.40301513671875,261.02001953125,139.5570068359375,263.218017578125,152.9210205078125,270.43505859375C165.21902465820312,277.077880859375,174.06402587890625,285.68896484375,179.45700073242188,296.27001953125C184.8489990234375,306.85009765625,184.02200317382812,318.661865234375,176.97702026367188,331.7060546875L162.04299926757812,323.639892578125C164.63800048828125,316.926025390625,165.5360107421875,311.18798828125,164.739013671875,306.425048828125C163.20101928710938,297.68505859375,156.62899780273438,290.180908203125,145.02301025390625,283.9130859375C135.65200805664062,278.85205078125,127.85299682617188,277.18408203125,121.62600708007812,278.908935546875C115.39901733398438,280.635009765625,110.87600708007812,284.10693359375,108.05801391601562,289.323974609375C104.9520263671875,295.073974609375,105.07601928710938,300.573974609375,108.43002319335938,305.823974609375C110.6510009765625,309.223876953125,116.6090087890625,315.193115234375,126.302001953125,323.72998046875L140.72601318359375,336.368896484375C147.68099975585938,342.463134765625,152.46701049804688,348.24609375,155.0830078125,353.716064453125C159.57501220703125,363.22607421875,159.00302124023438,373.197998046875,153.36599731445312,383.633056640625C146.35000610351562,396.6240234375,136.60702514648438,403.362060546875,124.13800048828125,403.847900390625C111.66799926757812,404.3349609375,99.17800903320312,401.198974609375,86.666015625,394.44091796875C72.0780029296875,386.56201171875,62.671016693115234,376.6669921875,58.445003509521484,364.757080078125C54.189022064208984,352.89892578125,55.56301498413086,340.677978515625,62.567012786865234,328.093017578125L77.50100708007812,336.158935546875Z" style="fill: none; stroke-width: 10; stroke: rgb(198, 198, 198); stroke-opacity: 1;"/></g></g></g><g id="shape-4192aaeb-1942-8086-8006-99a17d52753d"><g class="fills" id="fills-4192aaeb-1942-8086-8006-99a17d52753d"><path d="M276.6419982910156,372.679931640625L284.6590270996094,389.067138671875L235.1710205078125,413.280029296875L265.6470031738281,475.569091796875L315.1350402832031,451.35595703125L323.1529846191406,467.742919921875L203.38702392578125,526.341064453125L195.3690185546875,509.953857421875L251.3800048828125,482.549072265625L220.90402221679688,420.260986328125L164.89300537109375,447.666015625L156.875,431.278076171875L276.6419982910156,372.679931640625Z" stroke-linecap="butt" stroke-miterlimit="10" style="fill-rule: nonzero; clip-rule: evenodd; stroke-linejoin: round; fill: rgb(66, 0, 83); fill-opacity: 1;"/></g><g stroke-linecap="butt" stroke-miterlimit="10" id="strokes-7fc7910a-b004-80e7-8006-99a3ba140b24-4192aaeb-1942-8086-8006-99a17d52753d" class="strokes" style="fill-rule: nonzero; clip-rule: evenodd; stroke-linejoin: round;"><g class="stroke-shape"><path d="M276.6419982910156,372.679931640625L284.6590270996094,389.067138671875L235.1710205078125,413.280029296875L265.6470031738281,475.569091796875L315.1350402832031,451.35595703125L323.1529846191406,467.742919921875L203.38702392578125,526.341064453125L195.3690185546875,509.953857421875L251.3800048828125,482.549072265625L220.90402221679688,420.260986328125L164.89300537109375,447.666015625L156.875,431.278076171875L276.6419982910156,372.679931640625Z" style="fill: none; stroke-width: 10; stroke: rgb(198, 198, 198); stroke-opacity: 1;"/></g></g></g><g id="shape-4192aaeb-1942-8086-8006-99a17d5286b1"><g class="fills" id="fills-4192aaeb-1942-8086-8006-99a17d5286b1"><path d="M343.8840026855469,550.016845703125L344.9670104980469,568.22802734375L211.8690185546875,576.14599609375L210.7860107421875,557.93408203125L343.8840026855469,550.016845703125Z" stroke-linecap="butt" stroke-miterlimit="10" style="fill-rule: nonzero; clip-rule: evenodd; stroke-linejoin: round; fill: rgb(66, 0, 83); fill-opacity: 1;"/></g><g stroke-linecap="butt" stroke-miterlimit="10" id="strokes-7fc7910a-b004-80e7-8006-99a3ba14a7cc-4192aaeb-1942-8086-8006-99a17d5286b1" class="strokes" style="fill-rule: nonzero; clip-rule: evenodd; stroke-linejoin: round;"><g class="stroke-shape"><path d="M343.8840026855469,550.016845703125L344.9670104980469,568.22802734375L211.8690185546875,576.14599609375L210.7860107421875,557.93408203125L343.8840026855469,550.016845703125Z" style="fill: none; stroke-width: 10; stroke: rgb(198, 198, 198); stroke-opacity: 1;"/></g></g></g><g id="shape-4192aaeb-1942-8086-8006-99a17d5286b2"><g class="fills" id="fills-4192aaeb-1942-8086-8006-99a17d5286b2"><path d="M379.6940002441406,630.23193359375C384.7990417480469,641.669921875,387.0030212402344,652.547119140625,386.3070373535156,662.864013671875C385.3529968261719,677.801025390625,377.5230407714844,690.174072265625,362.8180236816406,699.984130859375L355.5310363769531,683.656005859375C363.5390319824219,677.697021484375,368.1809997558594,670.68798828125,369.4549865722656,662.632080078125C370.7300109863281,654.574951171875,369.2460021972656,645.794921875,365.0039978027344,636.291015625C359.9740295410156,625.01904296875,351.5110168457031,617.4150390625,339.6159973144531,613.47998046875C327.7220153808594,609.544921875,313.4040222167969,611.31298828125,296.6610412597656,618.785888671875C282.18402099609375,625.2470703125,271.8180236816406,633.682861328125,265.56500244140625,644.094970703125C259.3110046386719,654.506103515625,259.3900146484375,666.89501953125,265.802001953125,681.260986328125C270.71002197265625,692.257080078125,277.9640197753906,699.93701171875,287.5639953613281,704.299072265625C297.1650085449219,708.661865234375,309.1300354003906,707.744873046875,323.4599914550781,701.548095703125L306.4440002441406,663.421142578125L320.1200256347656,657.317138671875L343.9790344238281,710.778076171875L278.8320007324219,739.85302734375L274.0970153808594,729.243896484375L287.9870300292969,718.27392578125C279.3630065917969,715.430908203125,272.9010009765625,712.384033203125,268.60101318359375,709.135009765625C261.2820129394531,703.720947265625,255.13101196289062,695.432861328125,250.14901733398438,684.27197265625C243.7130126953125,669.849853515625,242.84500122070312,655.361083984375,247.5469970703125,640.804931640625C254.20602416992188,624.2490234375,267.7580261230469,611.408935546875,288.2030334472656,602.283935546875C308.5920104980469,593.18408203125,327.2760314941406,591.471923828125,344.2539978027344,597.14697265625C360.4330139160156,602.515869140625,372.2470397949219,613.5439453125,379.6940002441406,630.23193359375Z" stroke-linecap="butt" stroke-miterlimit="10" style="fill-rule: nonzero; clip-rule: evenodd; stroke-linejoin: round; fill: rgb(66, 0, 83); fill-opacity: 1;"/></g><g stroke-linecap="butt" stroke-miterlimit="10" id="strokes-7fc7910a-b004-80e7-8006-99a3ba15293d-4192aaeb-1942-8086-8006-99a17d5286b2" class="strokes" style="fill-rule: nonzero; clip-rule: evenodd; stroke-linejoin: round;"><g class="stroke-shape"><path d="M379.6940002441406,630.23193359375C384.7990417480469,641.669921875,387.0030212402344,652.547119140625,386.3070373535156,662.864013671875C385.3529968261719,677.801025390625,377.5230407714844,690.174072265625,362.8180236816406,699.984130859375L355.5310363769531,683.656005859375C363.5390319824219,677.697021484375,368.1809997558594,670.68798828125,369.4549865722656,662.632080078125C370.7300109863281,654.574951171875,369.2460021972656,645.794921875,365.0039978027344,636.291015625C359.9740295410156,625.01904296875,351.5110168457031,617.4150390625,339.6159973144531,613.47998046875C327.7220153808594,609.544921875,313.4040222167969,611.31298828125,296.6610412597656,618.785888671875C282.18402099609375,625.2470703125,271.8180236816406,633.682861328125,265.56500244140625,644.094970703125C259.3110046386719,654.506103515625,259.3900146484375,666.89501953125,265.802001953125,681.260986328125C270.71002197265625,692.257080078125,277.9640197753906,699.93701171875,287.5639953613281,704.299072265625C297.1650085449219,708.661865234375,309.1300354003906,707.744873046875,323.4599914550781,701.548095703125L306.4440002441406,663.421142578125L320.1200256347656,657.317138671875L343.9790344238281,710.778076171875L278.8320007324219,739.85302734375L274.0970153808594,729.243896484375L287.9870300292969,718.27392578125C279.3630065917969,715.430908203125,272.9010009765625,712.384033203125,268.60101318359375,709.135009765625C261.2820129394531,703.720947265625,255.13101196289062,695.432861328125,250.14901733398438,684.27197265625C243.7130126953125,669.849853515625,242.84500122070312,655.361083984375,247.5469970703125,640.804931640625C254.20602416992188,624.2490234375,267.7580261230469,611.408935546875,288.2030334472656,602.283935546875C308.5920104980469,593.18408203125,327.2760314941406,591.471923828125,344.2539978027344,597.14697265625C360.4330139160156,602.515869140625,372.2470397949219,613.5439453125,379.6940002441406,630.23193359375Z" style="fill: none; stroke-width: 10; stroke: rgb(198, 198, 198); stroke-opacity: 1;"/></g></g></g><g id="shape-4192aaeb-1942-8086-8006-99a17d5286b3"><g class="fills" id="fills-4192aaeb-1942-8086-8006-99a17d5286b3"><path d="M413.0270080566406,709.945068359375L421.0379943847656,726.3359375L301.2480163574219,784.885009765625L293.2370300292969,768.494873046875L413.0270080566406,709.945068359375Z" stroke-linecap="butt" stroke-miterlimit="10" style="fill-rule: nonzero; clip-rule: evenodd; stroke-linejoin: round; fill: rgb(66, 0, 83); fill-opacity: 1;"/></g><g stroke-linecap="butt" stroke-miterlimit="10" id="strokes-7fc7910a-b004-80e7-8006-99a3ba1584e9-4192aaeb-1942-8086-8006-99a17d5286b3" class="strokes" style="fill-rule: nonzero; clip-rule: evenodd; stroke-linejoin: round;"><g class="stroke-shape"><path d="M413.0270080566406,709.945068359375L421.0379943847656,726.3359375L301.2480163574219,784.885009765625L293.2370300292969,768.494873046875L413.0270080566406,709.945068359375Z" style="fill: none; stroke-width: 10; stroke: rgb(198, 198, 198); stroke-opacity: 1;"/></g></g></g></g></svg>
