<svg width="809.565" xmlns="http://www.w3.org/2000/svg" height="1090.327" id="screenshot-4192aaeb-1942-8086-8006-99a17d5143c4" viewBox="0 0 809.565 1090.327" xmlns:xlink="http://www.w3.org/1999/xlink" fill="none" version="1.1"><g id="shape-4192aaeb-1942-8086-8006-99a17d5143c4" clip-path="url(#render-1-a)" rx="0" ry="0" style="fill: rgb(0, 0, 0);"><defs><clipPath id="render-1-a" class="svg-def" transform="matrix(1.000000, 0.000000, 0.000000, 1.000000, -131.956180, -62.132689)"><rect height="1024" width="1024"/></clipPath></defs><g id="shape-4192aaeb-1942-8086-8006-99a17d51a1b3"><g class="fills" id="fills-4192aaeb-1942-8086-8006-99a17d51a1b3"><path d="M321.94781494140625,0.006715511903166771C307.61181640625,-0.09240557998418808,293.1628112792969,0.9071061611175537,278.69482421875,3.0633561611175537C124.37081909179688,26.063844680786133,26.457822799682617,172.5863037109375,60.012813568115234,330.3372802734375C83.07182312011719,438.7403564453125,162.20382690429688,524.2574462890625,259.5348205566406,559.6744384765625L259.5348205566406,678.4913330078125L259.5348205566406,682.6602783203125C253.12582397460938,680.6812744140625,246.2938232421875,679.4342041015625,239.09381103515625,678.9283447265625C236.48483276367188,678.7452392578125,233.9188232421875,678.4874267578125,231.22183227539062,678.4913330078125C179.54583740234375,678.5743408203125,112.64582824707031,712.7833251953125,61.67281723022461,769.5992431640625C-6.290179252624512,845.3543701171875,-20.209177017211914,932.6441650390625,30.561826705932617,964.5572509765625C64.23382568359375,985.7271728515625,117.87882995605469,977.0372314453125,170.04180908203125,946.8172607421875L170.04180908203125,1025.2974853515625C170.04180908203125,1061.2174072265625,204.81182861328125,1090.3272705078125,247.725830078125,1090.3272705078125L487.70184326171875,1090.3272705078125C530.6168212890625,1090.3272705078125,565.3868408203125,1061.2174072265625,565.3868408203125,1025.2974853515625L565.3868408203125,991.9073486328125C591.849853515625,1004.7374267578125,618.580810546875,1008.6673583984375,641.7427978515625,1000.8873291015625C700.663818359375,981.0772705078125,714.21484375,893.7613525390625,672.0478515625,805.8443603515625C635.1517944335938,728.9173583984375,567.8138427734375,677.0372314453125,512.0787963867188,678.5313720703125C508.45184326171875,678.6282958984375,504.8778076171875,679.0062255859375,501.36083984375,679.5633544921875C497.1578369140625,680.2293701171875,493.039794921875,681.1932373046875,489.02984619140625,682.5413818359375C484.33380126953125,684.1192626953125,480.0078125,686.2523193359375,475.892822265625,688.6544189453125L475.892822265625,678.4913330078125L475.892822265625,551.2984619140625C530.1558227539062,525.4603271484375,572.4518432617188,482.0401611328125,598.0628051757812,428.9874267578125L556.61279296875,435.4984130859375L399.96380615234375,460.0714111328125L367.7138366699219,419.6983642578125L625.0958251953125,315.1324462890625C625.5787963867188,292.8853759765625,623.7918090820312,270.1282958984375,618.8828125,247.0494384765625C588.4738159179688,104.0882568359375,460.53179931640625,0.9656999111175537,321.94781494140625,0.006715511903166771Z" stroke-miterlimit="10" style="fill-rule: nonzero; clip-rule: evenodd; stroke-linecap: round; stroke-linejoin: round; fill: rgb(66, 0, 83);"/></g></g><g id="shape-4192aaeb-1942-8086-8006-99a17d51f019"><g class="fills" id="fills-4192aaeb-1942-8086-8006-99a17d51f019"><path d="M640.5137939453125,347.5113525390625L786.1047973632812,242.6312255859375" stroke-miterlimit="10" fill="none" style="fill-rule: nonzero; clip-rule: evenodd; stroke-linecap: round; stroke-linejoin: round; fill: none;"/></g><g stroke-miterlimit="10" fill="none" id="strokes-ed4add02-ed5b-80d8-8006-99a3c5548f11-4192aaeb-1942-8086-8006-99a17d51f019" class="strokes" style="fill-rule: nonzero; clip-rule: evenodd; stroke-linecap: round; stroke-linejoin: round;"><g class="stroke-shape"><path d="M640.5137939453125,347.5113525390625L786.1047973632812,242.6312255859375" style="fill: none; stroke-width: 10; stroke: rgb(66, 0, 83); stroke-opacity: 1;"/></g></g></g><g id="shape-4192aaeb-1942-8086-8006-99a17d51f01a"><g class="fills" id="fills-4192aaeb-1942-8086-8006-99a17d51f01a"><path d="M642.5838012695312,382.7022705078125L809.5648193359375,331.6412353515625" stroke-miterlimit="10" fill="none" style="fill-rule: nonzero; clip-rule: evenodd; stroke-linecap: round; stroke-linejoin: round; fill: none;"/></g><g stroke-miterlimit="10" fill="none" id="strokes-ed4add02-ed5b-80d8-8006-99a3c5556161-4192aaeb-1942-8086-8006-99a17d51f01a" class="strokes" style="fill-rule: nonzero; clip-rule: evenodd; stroke-linecap: round; stroke-linejoin: round;"><g class="stroke-shape"><path d="M642.5838012695312,382.7022705078125L809.5648193359375,331.6412353515625" style="fill: none; stroke-width: 10; stroke: rgb(66, 0, 83); stroke-opacity: 1;"/></g></g></g><g id="shape-4192aaeb-1942-8086-8006-99a17d51f01b"><g class="fills" id="fills-4192aaeb-1942-8086-8006-99a17d51f01b"><path d="M640.5137939453125,421.4522705078125L809.5648193359375,449.8673095703125" stroke-miterlimit="10" fill="none" style="fill-rule: nonzero; clip-rule: evenodd; stroke-linecap: round; stroke-linejoin: round; fill: none;"/></g><g stroke-miterlimit="10" fill="none" id="strokes-ed4add02-ed5b-80d8-8006-99a3c555b367-4192aaeb-1942-8086-8006-99a17d51f01b" class="strokes" style="fill-rule: nonzero; clip-rule: evenodd; stroke-linecap: round; stroke-linejoin: round;"><g class="stroke-shape"><path d="M640.5137939453125,421.4522705078125L809.5648193359375,449.8673095703125" style="fill: none; stroke-width: 10; stroke: rgb(66, 0, 83); stroke-opacity: 1;"/></g></g></g></g></svg>
